<?xml version="1.0" standalone="no"?><!DOCTYPE svg PUBLIC "-//W3C//DTD SVG 1.1//EN" "http://www.w3.org/Graphics/SVG/1.1/DTD/svg11.dtd"><svg t="1739891112786" class="icon" viewBox="0 0 2565 1024" version="1.1" xmlns="http://www.w3.org/2000/svg" p-id="4218" xmlns:xlink="http://www.w3.org/1999/xlink" width="500.9765625" height="200"><path d="M1707.15723 677.349953c17.429723-4.676267 31.944371-10.202765 42.086405-16.275839 42.997366-26.17495-7.226958-32.005101-24.656682-32.855331-6.133805-0.607307-11.599572-1.153884-17.429723-1.761192v-8.98815c48.766786 4.06896 97.229919 0.910961 88.545423 26.17495-4.91919 14.210994-47.066326 28.421988-88.545423 39.474983v-5.830151z m0-395.600057c15.972185-0.607307 31.944371 3.461652 47.005595 15.364878 85.08377 7.530612 120.489793 77.249505 35.406023 129.538674-24.110105 32.248024-47.066326 54.354015-82.472349 49.374093v-11.295918c28.179065 2.915076 56.358129-11.903226 66.803817-45.608787q4.372613-2.611422 15.668532-4.06896c72.269584-39.23206 24.656682-117.939102-41.539828-104.274685-16.275839-12.753456-29.029295-16.883146-40.932521-17.429724v-11.599571z m0 299.766945v9.899111c102.513494 8.13792 288.896143-45.608788 312.702594 44.454904 11.052995 40.932521-165.18762 63.038511-312.702594 76.945851v9.291804c136.765632-10.445688 297.276985-25.263989 321.690744-72.330315v-28.179064c-30.183179-67.107471-176.240615-46.762672-278.146801-40.993252-16.822416 0.910961-31.337063 1.457538-43.543943 0.910961z m0 194.277646c18.583607 4.615536 36.316984 13.968071 40.628867 30.790487-10.445688-1.153884-19.737491-3.826037-40.628867-5.222844v-6.073074c8.13792 1.153884 16.822416 2.611422 31.944371 3.461652-7.287689-6.984035-15.121955-12.206879-31.944371-16.215108v-6.680382z m-233.995551-53.685976c74.030775-17.429723 172.171655-27.328834 233.995551-44.758558v5.830152c-26.96445 6.984035-53.685977 12.206879-70.508392 15.061224-55.447168 9.291804-116.420834 18.037031-163.487159 28.725641v-4.91919z m233.995551-95.590189v-8.98815c-54.293284-4.06896-109.133145-17.429723-85.934001-86.237655 6.680382-0.85023 13.05711-2.004115 20.344799-2.915075-7.530612 43.847596 21.195029 59.273205 65.589202 63.03851v-9.899111c-55.447168-2.915076-61.520242-25.567643-17.9763-97.290649q0-7.226958 2.004115-11.903226c5.830151 1.457538 10.749341 3.218729 15.972185 3.765306v-11.295918c-16.275839-1.761192-32.794601-9.899111-46.762672-23.259874-22.348913-45.608788 15.364878-42.390058 38.624753-61.034397-1.153884-1.457538-1.457538-2.915076-2.064846-4.676267-42.693712 3.218729-68.807931 32.005101-48.159479 73.484199 22.89549 17.429723 34.859446 21.498683 8.684497 51.681862-25.567643 13.968071-50.224324 18.037031-76.338544 16.275839-1.457538 1.153884-3.218729 2.307768-4.676267 3.218729 0 10.749341 4.676267 18.037031-8.745227 28.786372-21.498683-42.147135-45.00148-60.184166-83.565502-65.649933h-11.052995v13.360764h15.425609c59.819782 18.279954 87.391539 63.585088 38.928406 116.481564q-29.332949 20.952106-39.474983 26.478604c-18.583607 0.607307-12.510533 12.449802-14.818301 26.114219v27.875411c9.595457-8.441573 15.425609-21.195029 19.737491-41.539828 34.555793-17.429723 69.354508-48.22021 73.484199-87.695192 13.664417-2.004115 24.110105-15.972185 26.721526-29.332949 4.372613-0.546577 8.98815-0.85023 14.271725-0.85023-6.680382 28.179065-9.899111 44.454904 15.364878 69.718892 22.956221 15.425609 50.831632 19.433838 84.476463 22.348913z m-233.995551-343.918196c24.413759-4.06896 52.228439-1.457538 80.407503 2.064845 40.932521-10.749341 67.957701-17.490454 110.590682 8.380843 13.90734-6.376728 28.725641-10.445688 42.936635-11.295918v11.599571c-15.972185 0-31.337063 6.680382-53.139399 10.445688-36.559907-26.721527-57.451283-23.806451-94.922151-4.372613-24.717412-4.91919-57.754936-11.052995-85.934001-6.984036v-9.899111z m233.995551 439.508385v-9.291804c-90.245884 8.684496-169.560234 14.210994-189.540648 18.887261-20.891375 7.287689-36.316984 24.717412-3.461652 36.924292 67.04674 17.9763 120.793447 7.226958 139.377054 7.773535 24.960335 1.457538 41.479097 3.522383 53.685977 6.133805v-6.680382c-24.110105-6.680382-49.617017-5.526498-52.228439-6.073074-34.798716-0.607307-51.681862 5.526498-107.97926-1.700461-14.514647-0.303654-71.419353-14.818301-26.11422-27.632488 30.183179-8.077189 103.910301-12.753456 186.38265-18.279954z m0 79.31435c-11.599572-0.85023-27.571757-2.064845-49.07044-2.064846-47.309249-0.85023-108.282914 13.968071-150.126396 9.838381-12.510533-1.093153-24.110105-2.004115-34.859446-3.765306v-8.13792c8.13792 1.153884 16.822416 1.457538 26.114219 2.611422 47.005595 4.615536 117.574718-7.287689 159.661123-8.13792 26.114219 0 36.559907 1.457538 48.159479 3.522384v6.073074z m-233.995551-392.745713v-9.534727c31.033409-8.13792 61.823896 8.745227 52.532092 27.571757-13.664417-2.004115-12.206879-2.611422-17.733377-11.599571-13.05711-7.287689-24.656682-8.745227-34.859446-6.437459z m-87.695193 347.076194c17.429723-14.210994 49.617017-24.960335 87.695193-33.644831v4.91919c-46.155364 10.749341-78.949965 23.563528-78.949966 40.993251-1.153884 9.291804 20.891375 22.652567 78.949966 29.332949v8.137919c-71.419353-8.13792-103.667378-20.891375-87.695193-49.677747z m87.695193-61.823896v-27.875411c0 2.064845-0.546577 4.06896-1.761192 6.680382-16.275839 16.579493-37.713791 13.360763-55.750822 13.90734-49.07044 27.02518-121.03637 57.512013-168.649272 22.956221-0.303654-2.611422-0.910961-4.91919-1.457538-6.984036 35.406023-50.831632 18.583607-101.663263-43.543942-101.663263-12.753456 4.615536-22.652567 4.615536-27.268104 17.429723 1.761192 3.218729 3.826037 6.073074 5.830151 9.899111 26.114219 0 67.654047-19.190915 65.042626 33.098255-7.530612 35.466754-47.612902 50.285055-83.869156 54.900591v19.980415c19.737491-2.611422 39.717906-6.073074 61.823896-11.295918 40.932521 40.932521 145.450129 0.546577 192.820108-16.275839 27.02518-2.064845 44.454904-4.615536 56.904706-14.818302zM1161.6737 0.80948c39.171329-4.615536 79.253619 11.052995 103.302993 33.098255 69.658162 6.133805 84.537194 24.717412 102.513493 44.21198 74.941736 17.9763 95.833112 47.066326 94.314844 74.334429-3.157999 45.00148-79.496542 85.994732-145.146475 77.310236-18.279954 17.126069-34.798716 24.110105-53.1394 31.397794-0.607307 2.004115-0.607307 4.615536-0.607307 7.226958 27.632488 15.425609 69.111585 44.454904 47.612902 87.998846 0 4.06896-0.607307 6.680382 3.218729 12.510533-1.761192-11.295918 51.074555-35.406023 86.480578-32.248024 16.822416-34.555793 42.390058-49.374094 72.876891-54.050361v9.899111c-29.332949 4.06896-53.382323 18.887261-56.601052 57.26909-9.534727-2.064845-65.892856 0.546577-85.934001 29.879526-14.210994 29.029295-8.13792 42.997366 24.656681 59.273205 20.041145 3.765306 45.00148 4.372613 65.649933 21.802336 9.534727-37.470868 31.033409-55.447168 52.228439-61.580973v9.534727c-15.121955 4.06896-26.721527 17.126069-33.948485 34.920177-2.064845 31.337063 3.218729 40.628867 33.948485 40.08229v13.360763h-11.356649c-11.295918 2.915076-31.88364 8.684496-38.867675 6.680382-3.157999-44.758557-50.224324-54.354015-91.156845-34.252139-38.624752-22.652567-111.744566-16.579493-170.10681 33.705562v-27.571757c48.463133-24.717412 102.756417-34.859446 159.661122-36.620638-3.461652-17.733377-20.891375-30.486833-16.275839-51.681862-2.064845-0.607307-4.06896-0.85023-6.073074-1.457537-38.017445 30.790487-89.456384 40.385944-137.312209 44.151249v-15.364877c59.212474-6.680382 120.18614-23.502797 134.09348-66.803817-4.06896-82.472349-81.622118-75.791967-134.09348-94.679228v-13.360764c43.543942 22.652567 107.97926 18.644338 148.911781-22.95622 32.187294 2.004115 48.159479 4.06896 82.168695-10.445688 69.961816-7.530612 83.322579-107.189761-13.90734-112.108951-15.972185 53.1394-36.863561 73.180545-93.768267 80.468234-38.321099 22.89549-85.630347 42.997366-123.344138 21.498683v-17.9763c31.033409 20.648453 92.007075 11.356649 111.440912-19.433838 62.12755 11.903226 90.853191-35.466754 86.237655-62.431203-5.830151-33.401908-65.042625-58.969551-110.34776-50.831632-6.984035-24.110105-48.159479-35.709677-87.391538-29.090025V0.80948z m0 107.493415c13.603686-5.526498 28.118334-7.226958 45.548057 3.218729 2.064845 6.984035-4.615536 24.960335 15.364877 18.887261q2.915076-4.06896 4.06896-13.360763c-10.445688-31.033409-40.08229-40.932521-65.042625-33.401909v24.717412z m0 627.955879c-9.291804 1.214615-18.583607 2.064845-27.875411 2.611422-33.098255 40.385944-212.496869 37.470868-256.587388-50.831632-2.064845-0.546577-4.06896-0.85023-5.526498-0.85023-43.543942 54.293284-350.416385-0.607307-212.800522-72.330315 7.226958-2.064845 37.470868-9.352534 41.236174-16.579493-19.130184-51.135285-137.008555-43.543942-149.215434 0-2.611422 9.291804-2.611422 21.498683-2.611422 40.082291-27.571757 66.500163-109.740452 98.444534-175.086731 98.444533-23.806451-6.680382-34.555793-7.287689-50.831632-0.607307v-21.498683c18.037031-8.13792 31.397794-2.064845 60.973666 1.457538 51.681862-6.133805 125.408984-22.10599 143.385283-81.925772 0.546577-9.899111 1.153884-19.433838 1.457538-29.332949 11.295918-67.107471 162.029621-92.675113 186.989956 4.06896-17.733377 24.110105-61.823896 5.222844-67.046739 43.240289-4.06896 24.110105 147.21132 61.884627 182.010035 25.021066-91.156845-56.904706-119.882486-132.757403 6.984036-169.074388-2.915076-67.107471 68.747201-64.738972 129.781597-63.645818 24.110105-15.972185 60.366358-26.721527 93.160959-26.721527 23.199144 0 62.12755 0.546577 101.663263-3.461652v15.364878c-18.583607 1.457538-36.01333 2.064845-52.896477 2.915075-4.615536 4.676267 33.705562 32.248024 42.997366 48.22021 3.218729-2.064845 6.680382-3.522383 9.899111-5.526498v27.571758c-2.064845 1.457538-4.372613 3.461652-6.437458 5.526497-0.85023 7.834266-2.004115 15.425609-2.915076 23.806451-23.502797 81.925772-101.055956 83.38331-166.645158 60.427089-62.97778-44.211981-30.183179-101.966917 35.406023-106.582453 15.972185 3.461652 47.612902 11.295918 30.183179 40.325213h-14.210994c-13.90734-40.325213-81.561387-24.960335-62.674126 32.855332 56.054475 63.585088 188.143841 29.332949 155.34924-72.633968-18.279954-41.479097-59.819782-52.289169-96.379689-52.28917-29.029295 3.522383-39.171329 11.599572-60.366358 22.956221-37.470868 0-156.806778-5.222844-111.744567 64.496049-100.144995 22.04526-99.841341 60.123435-79.253619 89.15273 30.183179 42.147135 122.797562 69.47597 166.037851 37.167214-4.615536 23.806451-22.04526 23.563528-39.474983 31.094141 15.668532 85.691078 192.212801 85.691078 214.561714 38.078175 10.749341 0.607307 24.110105 0.607307 38.624752-1.153884v19.980414zM322.314105 263.712865v12.146149c46.155364-22.956221 128.081136-3.461652 132.696673 47.673633 36.863561 4.615536 88.545423-19.433838 89.699307 68.807931 112.04822 51.681862-3.765306 144.964283-45.244403 99.902072-34.859446 13.968071-149.519088 22.652567-131.542789-56.35813 6.073074-26.721527 20.587722-42.693712 50.831632-42.086404 12.753456 0.607307 22.89549 7.834266 24.960335 27.632488-2.611422 1.761192-5.222844 3.218729-7.530612 4.615536 0 18.583607 22.04526 14.514647 34.859446 5.830151 0-60.123435-64.738972-60.427089-104.517608-38.928406 2.915076-17.429723-19.190915-36.620638-44.15125-42.693712v13.90734c11.599572 4.979921 20.952106 14.818301 23.502797 28.179065 4.06896 22.10599-3.461652 38.928406-23.502797 48.827517v14.818301c7.591343-0.546577 15.972185-1.153884 22.956221-0.546576 5.222844 18.887261 11.903226 31.640717 32.248024 46.762671 21.802337 42.390058-15.121955 75.24539-55.204245 78.403389v19.433838c29.029295-1.153884 58.362244-15.972185 74.941736-43.240289 3.461652-11.052995 7.591343-22.409644 11.599572-33.705562 23.199144 0 44.697827-1.153884 68.807932-5.830151 64.435318 12.510533 18.279954 99.598418-49.374094 92.371459-11.295918 34.859446-61.520242 50.831632-105.975146 49.677748v14.514647c39.474983 1.457538 83.929886-9.899111 116.724487-45.305134 42.086405-12.814187 86.237655-45.062211 87.695193-104.031762q4.06896-2.004115 21.498683-3.461652c20.587722-8.745227 36.316984-22.652567 51.681862-38.078176 38.017445-16.275839 84.780117-8.13792 124.558753 9.291804 2.064845 3.218729-1.457538 10.749341-1.457538 18.583607 28.725641 28.179065 153.588048-49.374094 103.06007-95.833112-32.551678-18.037031-76.095621-9.899111-108.282914-11.356649-23.563528-9.899111-26.114219-8.441573-28.725641-24.717412 45.851711-32.248024 132.393019-26.114219 188.690417-27.571757 78.403389 4.615536 164.944697 10.749341 233.995552-38.928406 14.514647-6.376728 30.486833-12.510533 18.03703-27.875411-56.358129-13.421494-106.582453-2.064845-150.126395-37.774522-11.599572-22.10599-24.960335-18.037031-39.474983-9.899111-186.929226 2.004115-220.634788-95.286535-48.463133-120.550524-2.611422-34.252139 62.431203-92.675113 106.521723-38.928406-26.114219 27.268103-38.017445 43.30102-39.474983 60.973665-5.222844 59.576859 88.545423 85.691078 162.272544 83.686964 8.745227 15.364878 23.199144 24.656682 40.689598 30.790486v-13.360763c-15.121955-7.530612-27.328834-18.887261-35.406023-32.248025-208.184986 11.295918-195.674453-122.615369-36.863561-142.049207 13.603686-28.179065 42.390058-44.15125 72.269584-49.07044V0.80948c-29.940256 3.522383-58.969551 18.887261-80.16458 52.28917-24.413759-1.761192-42.997366 8.745227-65.892856 16.275839-33.401908-51.681862-126.562868-18.887261-136.461979 27.632487-228.469054 49.374094-125.408984 178.609114 84.172809 155.956548 31.640717 44.454904 79.860927 31.397794 118.728602 50.831631 0 35.1631-137.312209 35.1631-158.203584 34.859446-22.04526 0-262.47827-15.425609-262.47827 45.001481 21.195029 63.949472 105.124916 16.883146 149.519088 45.608788 16.579493 26.721527-49.07044 84.537194-70.569123 51.681862-38.867675-24.110105-96.986996-24.110105-135.854671-20.344799 9.291804-13.360763-8.13792-65.649933-45.548057-72.330315-7.591343-84.537194-58.362244-72.330315-89.15273-79.010696-16.275839-49.07044-95.225804-64.496049-147.514974-45.608788z m839.359595-180.127383v24.717413c-4.372613 2.064845-8.745227 4.615536-13.117841 7.287689-12.753456 30.790487-4.372613 51.135285 13.117841 62.491934v17.9763c-1.153884-0.607307-2.064845-1.457538-3.826037-2.004115-29.029295-18.887261-48.159479-52.896477-28.179065-85.691078a55.052418 55.052418 0 0 1 31.944371-24.717412zM322.314105 543.135012c10.142034-6.133805 9.595457-15.425609 0-20.041145v20.041145z m0 193.123762c-3.157999 1.457538-6.073074 3.218729-9.899111 5.283574-46.398287 13.360763-82.411618 1.457538-119.335909-19.190914q-18.887261 0-31.640717 3.218729C60.98972 728.788892 4.995975 687.552718 0.016054 641.579546v-14.514648c4.676267-41.539828 49.677747-84.537194 139.377054-101.055955 15.425609-21.498683 52.289169-19.433838 72.573238-23.502798 3.218729-8.745227 8.380842-22.956221 25.263989-35.709676-36.01333 6.073074-101.602532-19.433838-97.229919-88.909808 2.004115-39.778636 29.575872-94.679228 147.514974-91.217575 8.077189-10.202765 20.284068-17.733377 34.798715-22.956221v12.146149c-14.818301 7.834266-25.506912 19.494568-29.332949 36.01333-76.338544-31.944371-139.316324 22.10599-139.923631 65.953587-0.303654 44.15125 40.08229 90.306614 104.213955 79.618003 20.891375-15.972185 26.114219-11.356649 56.904706-12.814187 2.854345-1.093153 5.526498-2.611422 8.137919-3.461652v14.818301c-45.548057 4.676267-95.225804 25.021066-101.055956 61.27732-150.065665-4.06896-80.407503 172.232386 44.15125 129.842327 13.968071 7.530612 34.859446 12.206879 56.904706 12.20688v14.514647c-20.891375-0.546577-40.628867-5.222844-56.297398-10.749341-60.973666 13.603686-166.03785-3.218729-147.21132-115.024027-33.098255 2.611422-55.750822 17.126069-79.800196 36.013331-81.014811 95.286535 74.334429 133.30398 144.842821 117.939102h14.514647c29.029295 29.029295 65.042625 34.252139 110.044106 20.891375 5.222844-3.461652 9.899111-6.680382 13.90734-8.137919v21.498683z m0-386.004601c-29.575872-7.287689-64.131664 2.611422-68.200624 51.681862 3.218729-0.303654 6.680382-0.85023 10.142034-1.457537 3.218729-36.924292 34.859446-46.216095 58.05859-36.316985v-13.90734z m0 172.839694q-0.546577-0.607307-1.153884-0.607307c-49.677747 2.004115-71.1157 8.13792-55.143514 58.362243 15.668532 13.360763 35.709677 19.494568 56.297398 19.190915v-19.433838c-7.226958 0.303654-14.514647 0-21.498683-1.761191-16.822416-10.142034-24.049374-16.275839-17.9763-33.098255 12.753456-3.157999 19.433838-9.291804 36.863561-1.153884 1.153884-0.546577 1.457538-1.153884 2.611422-1.457538v-20.041145z" fill="#D0BE92" p-id="4219"></path></svg>